<?xml version="1.0" encoding="UTF-8"?>
<svg id="EXPORT" xmlns="http://www.w3.org/2000/svg" xmlns:xlink="http://www.w3.org/1999/xlink" viewBox="0 0 700 700">
  <defs>
    <style>
      .cls-1 {
        fill: #fff;
      }

      .cls-2 {
        fill: #ff4343;
      }

      .cls-3, .cls-4 {
        fill: none;
      }

      .cls-4 {
        clip-path: url(#clippath);
      }
    </style>
    <clipPath id="clippath">
      <rect class="cls-3" x="55.07" y="55.07" width="589.85" height="589.85" rx="294.93" ry="294.93"/>
    </clipPath>
  </defs>
  <g id="Design_4" data-name="Design 4">
    <g class="cls-4">
      <path class="cls-1" d="m95.38,488.04c-.27-.04-.9-.24-1.89-.6-.99-.36-2.1-.81-3.34-1.35-1.25-.47-2.54-.91-3.86-1.32-1.33-.41-2.39-.7-3.2-.89-.87-.19-1.88-.5-3.04-.92-1.15-.42-2.21-.88-3.18-1.39-1.88-.93-4.08-2.24-6.61-3.92-2.53-1.69-4.54-3.19-6.01-4.51-.42-.43-.86-.79-1.3-1.07-.44-.28-.74-.44-.87-.46-.41-.06-1.35-.98-2.83-2.79-1.48-1.8-2.95-3.77-4.42-5.9-1.47-2.13-2.52-3.87-3.16-5.22-2.1-4.82-3.61-8.64-4.53-11.48-.92-2.83-1.48-5.49-1.69-7.97-.3-3.31-.4-6.47-.29-9.5.11-3.03.46-6.65,1.04-10.87.27-1.96.64-4.58,1.09-7.86.59-3.77,1.1-7.19,1.53-10.25l1.67-12.01c.17-1.24.6-2.98,1.29-5.22.69-2.24,1.48-4.34,2.38-6.29,2.24-4.66,5.92-10.12,11.04-16.38,5.12-6.26,9.8-10.95,14.04-14.07,1.53-1.05,3.81-2.44,6.85-4.17,3.04-1.73,5.6-3.12,7.68-4.16,1.71-.87,3.63-1.63,5.76-2.26,2.13-.63,4.11-1.11,5.96-1.45,1.41-.17,3.59-.11,6.56.19,2.97.3,6,.71,9.12,1.21,3.11.51,5.56,1.07,7.34,1.69,5.34,1.86,9.65,3.94,12.93,6.25,4.16,2.88,7.39,6.29,9.68,10.25.51.81.95,1.52,1.31,2.13.37.61.58.92.65.92.07,0,.37.42.92,1.24.54.82,1.18,1.83,1.91,3.05,2.08,3.48,3.42,6,4.03,7.57.61,1.57.72,2.77.33,3.61-.18.27-1.05,1.1-2.63,2.47-1.57,1.38-3.48,3-5.71,4.88-2.23,1.88-4.42,3.67-6.56,5.38-2.14,1.71-3.86,2.99-5.15,3.85-2.01,1.5-3.42,2.2-4.23,2.08-.81-.11-1.75-1.1-2.8-2.95-1.2-1.8-3.01-4.11-5.42-6.93-2.41-2.82-4.44-4.97-6.1-6.47-1.36-1.15-2.68-2.02-3.94-2.61-1.27-.58-2.72-.92-4.37-1-.95-.13-1.79-.16-2.53-.07-.74.08-1.74.35-3.02.8-1.27.45-3.16,1.17-5.64,2.17-1.25.49-2.38.99-3.42,1.47-1.04.49-1.71.86-2.02,1.11-1.47,1.13-3.3,3.07-5.47,5.8-2.18,2.74-4.21,5.57-6.11,8.5-1.89,2.93-3.14,5.31-3.74,7.16-2.45,7.15-4.01,13.91-4.68,20.27-.42,4.02-.64,7.18-.64,9.48,0,2.3.15,4.51.48,6.63.6,4.16,2.13,7.79,4.61,10.88,1.4,1.9,2.58,3.29,3.57,4.17.98.88,2.19,1.64,3.62,2.28,3.56,1.76,6.06,2.4,7.51,1.93.43-.09,1.03-.19,1.81-.31.78-.11,1.55-.19,2.31-.23,1.81-.12,4.02-.48,6.63-1.08,2.61-.6,4.53-1.15,5.78-1.65,1.48-.68,4.22-2.53,8.24-5.53.47-.38,1.16-1.02,2.08-1.94.92-.91,1.84-1.89,2.75-2.96,1.15-1.32,2.05-2.35,2.71-3.07.65-.72,1.11-1.29,1.38-1.7.26-.41.41-.74.45-.99.04-.25,0-.54-.09-.85-.03-.3-.1-.55-.21-.75-.11-.2-.33-.36-.66-.48-.33-.12-.83-.26-1.5-.43-.94-.2-2.84-.47-5.7-.79-2.86-.32-5.81-.62-8.85-.9-3.04-.27-5.29-.4-6.74-.38-.7.05-1.24.05-1.61,0-.37-.05-.64-.11-.81-.17-.17-.06-.31-.17-.42-.34-.18-.69-.06-3.05.36-7.07.17-1.76.32-3.44.44-5.06.12-1.61.21-2.86.26-3.75.02-.14.04-.25.05-.33.03-1.18.12-2.63.29-4.35.17-1.72.38-3.34.62-4.86.25-1.52.49-2.64.72-3.35.75-1.9,1.76-2.94,3.03-3.14.36-.1,1.77-.01,4.22.25,2.45.27,5.41.6,8.88,1.01,2.32.25,4.4.46,6.24.64,1.9.26,3.41.44,4.54.52,1.13.08,1.73.13,1.8.14.21-.04,1.38.04,3.49.26,2.11.22,4.71.47,7.78.75,3.95.4,6.88.75,8.78,1.05,1.89.3,3.28.68,4.15,1.13.87.45,1.8,1.12,2.78,2,2.25,1.72,3.27,4.61,3.05,8.66-.02,2.15-.23,4.36-.61,6.65s-1.11,5.5-2.17,9.66c-1.22,4.8-2.22,8.48-2.99,11.05-.77,2.56-1.64,5.11-2.62,7.65-1.62,4.22-2.88,7.2-3.78,8.93-.9,1.73-1.78,2.98-2.65,3.75-.39.32-.79.72-1.21,1.22-.42.5-.83.98-1.24,1.44-.09.14-.17.24-.25.3-.35.55-.73,1.01-1.13,1.4-.4.39-.71.64-.94.76-.29.11-.77.43-1.43.97-.66.54-1.36,1.2-2.09,1.99-1.84,1.82-4.67,4.27-8.49,7.33-3.81,3.07-7.13,5.56-9.96,7.46-1.75,1.17-3.29,2.06-4.63,2.69-1.33.63-3.08,1.11-5.23,1.44-2.16.33-5.3.66-9.42.97-1.48.17-3.03.17-4.67.02-1.64-.15-2.99-.42-4.04-.78Z"/>
      <path class="cls-1" d="m560.14,563.48c-.35.02-1.17-.07-2.48-.27-1.31-.2-2.8-.48-4.46-.85-1.66-.27-3.36-.5-5.1-.67-1.74-.18-3.13-.28-4.17-.31-1.13-.02-2.46-.16-3.98-.39-1.53-.24-2.95-.54-4.27-.93-2.55-.69-5.6-1.76-9.15-3.22-3.55-1.46-6.4-2.83-8.55-4.09-.63-.43-1.26-.76-1.88-1-.62-.24-1.02-.36-1.19-.35-.52.03-1.91-.88-4.19-2.75-2.27-1.86-4.58-3.93-6.92-6.21-2.34-2.27-4.07-4.17-5.2-5.68-3.78-5.44-6.59-9.8-8.43-13.08-1.84-3.28-3.19-6.43-4.06-9.44-1.19-4.01-2.09-7.91-2.7-11.68-.61-3.77-1.07-8.33-1.39-13.7-.15-2.5-.34-5.83-.59-9.99-.2-4.82-.41-9.17-.64-13.05l-.9-15.26c-.09-1.57.01-3.83.32-6.77.3-2.94.77-5.73,1.39-8.37,1.62-6.31,4.82-13.97,9.62-22.98,4.79-9.01,9.42-15.96,13.9-20.87,1.63-1.67,4.12-3.95,7.45-6.84,3.33-2.89,6.16-5.24,8.48-7.04,1.9-1.51,4.09-2.91,6.57-4.22,2.48-1.31,4.81-2.39,7.01-3.27,1.7-.56,4.42-1.03,8.16-1.38,3.74-.36,7.6-.61,11.57-.75,3.97-.14,7.14-.05,9.49.28,7.07.98,12.91,2.49,17.53,4.54,5.86,2.53,10.69,5.96,14.49,10.29.83.88,1.55,1.65,2.15,2.31.6.66.94.99,1.03.98.08,0,.57.43,1.44,1.31.87.88,1.91,1.98,3.11,3.3,3.42,3.79,5.71,6.58,6.85,8.37,1.14,1.79,1.58,3.25,1.29,4.38-.15.38-1.03,1.62-2.64,3.71-1.61,2.09-3.56,4.57-5.86,7.45-2.3,2.88-4.56,5.63-6.78,8.27-2.22,2.64-4.03,4.65-5.42,6.03-2.11,2.35-3.68,3.56-4.72,3.62-1.03.06-2.43-.92-4.2-2.96-1.93-1.93-4.73-4.34-8.41-7.23-3.67-2.89-6.72-5.06-9.14-6.49-1.97-1.09-3.81-1.84-5.52-2.25-1.71-.41-3.6-.46-5.66-.16-1.21.07-2.26.25-3.15.53-.89.29-2.07.87-3.53,1.74-1.46.88-3.61,2.23-6.45,4.07-1.42.92-2.71,1.81-3.87,2.66-1.16.86-1.91,1.48-2.23,1.87-1.54,1.76-3.32,4.61-5.34,8.53-2.02,3.93-3.84,7.93-5.46,12.02-1.62,4.09-2.58,7.35-2.87,9.78-1.26,9.45-1.53,18.19-.79,26.22.47,5.08.99,9.04,1.54,11.88.56,2.85,1.3,5.54,2.23,8.08,1.76,5,4.56,9.11,8.38,12.32,2.19,2.01,4.01,3.43,5.44,4.27,1.43.85,3.12,1.49,5.05,1.93,4.83,1.29,8.09,1.47,9.77.54.51-.21,1.22-.49,2.16-.82.93-.33,1.87-.62,2.8-.86,2.21-.59,4.86-1.59,7.94-2.97,3.08-1.39,5.32-2.54,6.74-3.46,1.66-1.21,4.6-4.17,8.82-8.88.48-.58,1.18-1.55,2.1-2.91.91-1.35,1.8-2.8,2.67-4.33,1.1-1.92,1.96-3.41,2.59-4.47.63-1.06,1.06-1.87,1.28-2.44s.33-1.02.31-1.34c-.02-.32-.12-.67-.32-1.02-.11-.36-.26-.66-.44-.88-.19-.22-.5-.36-.93-.43-.44-.07-1.09-.12-1.96-.16-1.21-.02-3.63.12-7.24.43-3.62.31-7.34.66-11.17,1.07-3.83.41-6.64.81-8.43,1.19-.85.24-1.52.37-1.99.39-.47.03-.82.03-1.04,0-.22-.03-.42-.13-.6-.31-.4-.81-.83-3.76-1.3-8.83-.22-2.21-.45-4.34-.7-6.36-.25-2.02-.45-3.59-.6-4.7-.01-.18-.02-.32-.02-.42-.26-1.47-.5-3.29-.71-5.46-.21-2.17-.36-4.23-.43-6.17-.07-1.94-.05-3.38.07-4.32.46-2.53,1.45-4.08,2.97-4.63.42-.21,2.18-.45,5.28-.73,3.1-.27,6.84-.59,11.24-.94,2.93-.26,5.55-.51,7.87-.74,2.41-.14,4.33-.3,5.75-.48,1.42-.17,2.17-.27,2.26-.27.25-.11,1.71-.29,4.38-.54,2.67-.25,5.94-.58,9.81-.99,4.99-.48,8.69-.77,11.11-.86,2.42-.1,4.22.03,5.41.38,1.19.35,2.5.95,3.93,1.79,3.21,1.58,5.18,4.9,5.91,9.96.5,2.66.8,5.45.88,8.37.08,2.92-.02,7.08-.3,12.48-.33,6.24-.65,11.04-.97,14.4-.32,3.36-.77,6.73-1.35,10.1-.97,5.63-1.79,9.62-2.47,11.98-.69,2.36-1.47,4.12-2.35,5.29-.41.49-.8,1.09-1.19,1.81-.39.72-.78,1.42-1.18,2.09-.08.19-.16.34-.23.43-.3.76-.65,1.43-1.05,2.01-.4.58-.72.97-.97,1.17-.34.21-.85.73-1.53,1.55-.69.83-1.38,1.82-2.1,2.98-1.83,2.71-4.73,6.43-8.69,11.16-3.96,4.74-7.45,8.63-10.47,11.69-1.88,1.88-3.57,3.37-5.06,4.47-1.49,1.11-3.53,2.13-6.12,3.07-2.58.94-6.39,2.12-11.41,3.53-1.78.57-3.71.96-5.77,1.17-2.06.21-3.8.22-5.19.03Z"/>
      <path class="cls-1" d="m224.94,374.36c.46.04,2.66.69,6.6,1.94,3.94,1.26,8.48,2.75,13.63,4.48,5.26,1.76,10.48,3.54,15.67,5.34,5.19,1.8,9.32,3.27,12.4,4.42.93.43,1.64,1.06,2.14,1.88.5.82.6,1.67.32,2.52-.11.32-.18,1.88-.22,4.67-.04,2.79-.1,6.26-.18,10.42-.04,1.18-.07,2.36-.11,3.54-.11,20.62-.82,38.05-2.13,52.3-.33,3.11-.62,6.57-.88,10.36-.26,3.79-.41,7-.45,9.61-.04,2.61-.12,5.51-.23,8.7-.12,3.19-.21,5.96-.28,8.32,0,2.5-.07,6.51-.18,12.03-.12,5.51-.23,11.29-.35,17.34-.17,14.39-.36,25.64-.57,33.75-.21,8.11-.56,15.72-1.03,22.85-.19,3.76-.34,7.14-.45,10.15-.11,3.01-.15,4.99-.12,5.96.18,1.61.28,4.33.31,8.16.03,3.83.04,7.71.03,11.65,0,3.94-.1,6.89-.28,8.86-.04,1.9-.16,3.32-.36,4.27-.2.95-.5,1.68-.92,2.2-.41.52-1.01,1.07-1.8,1.63-.93.64-1.62,1.01-2.07,1.1-.45.09-1.07-.12-1.85-.62-.71-.36-2.94-1.22-6.65-2.59-3.72-1.37-8.09-2.95-13.09-4.75-13.2-4.43-19.87-6.96-20.02-7.61l-1.82-1.51.02-13.42c-.03-3.83.01-8.14.13-12.94.12-4.8.23-8.97.34-12.51.19-3.76.28-6.89.29-9.4.07-2,.13-3.06.17-3.17-.11-.04-2.21-.8-6.31-2.29-4.1-1.49-9.08-3.28-14.95-5.37-8.52-3.09-14.83-5.27-18.94-6.53-4.12-1.26-7.91-2.23-11.38-2.92-2.43-.58-4.63-1.07-6.57-1.49-1.95-.41-3.16-.64-3.62-.68-.36,0-.8.24-1.32.72-.52.48-1.32,1.35-2.39,2.6-1.08,1.25-2.57,3.11-4.47,5.58-5.46,7.01-9.98,12.83-13.56,17.48-5.2,6.61-8.32,10.58-9.36,11.9-1.04,1.32-2.19,2.07-3.44,2.25-2.61.32-7.26-1.3-13.95-4.86-1.93-1-3.68-1.77-5.23-2.29-1.56-.52-3.82-1.16-6.79-1.92-2.11-.47-4.34-1.04-6.68-1.7-2.35-.67-4.3-1.32-5.88-1.97-2.86-1.08-4.71-2.08-5.53-3.02-.82-.93-.96-2.2-.42-3.81.14-.43,1.24-2.09,3.29-4.99,2.04-2.9,4.46-6.2,7.27-9.92,2.22-3.08,4.54-6.24,6.94-9.49,3.62-5.11,6.46-9.12,8.5-12.01,1.44-2.14,3.11-4.57,5.04-7.27,1.92-2.7,3.67-5.16,5.25-7.37.21-.29.43-.57.65-.86,9.61-13.37,16.2-22.69,19.76-27.94,4.41-6.76,10.82-16.25,19.22-28.48,8.4-12.23,16.26-23.38,23.58-33.47,2.83-3.82,6.13-8.33,9.9-13.51,3.77-5.18,7.12-9.85,10.07-14,2.94-4.15,6.02-8.43,9.23-12.84,3.21-4.42,5.79-7.91,7.72-10.48,1.9-2.47,3.4-4.35,4.49-5.66,1.09-1.3,1.93-2.19,2.5-2.65.57-.46,1.04-.7,1.4-.7Zm.62,77.75l-1.4,1.5c-2.76,3.25-5.96,7.55-9.61,12.9-3.64,5.35-7.13,10.86-10.47,16.55-4.85,8.4-9.43,15.47-13.73,21.19l-3.82,4.99,18.03,6.05c2.9.97,5.34,1.79,7.32,2.46s3.63,1.19,4.94,1.57c1.3.38,2.34.67,3.11.86.77.2,1.35.33,1.74.41.39.07.67.05.83-.08.16-.12.26-.24.29-.35.07-.21.16-1.2.28-2.95.11-1.75.24-3.74.38-5.96.08-2.36.24-5.17.5-8.43.25-3.26.49-6.28.71-9.07.8-7.73,1.32-15.25,1.57-22.58.24-7.32.08-12.8-.48-16.46l-.21-2.58Z"/>
      <path class="cls-1" d="m357.01,660.45c-1.46.06-3.25.14-5.39.23-2.14.09-4.16.19-6.07.3-.37-.05-.74-.06-1.1-.02-2.01.03-4.3.14-6.89.32-2.58.18-4.83.33-6.74.44-.09,0-.18.02-.27.03-1.9.2-3.3.33-4.21.38-.91.05-1.55.03-1.93-.07-.38-.1-.67-.27-.88-.52-.25-.61-.79-3.78-1.62-9.49-.83-5.71-1.74-12.61-2.74-20.68-.99-8.07-1.89-15.95-2.71-23.63-.81-7.68-1.37-13.79-1.66-18.33-.24-3.99-.78-10.17-1.62-18.54-.84-8.36-1.69-16.66-2.56-24.88-3.25-31.55-5.07-53.51-5.46-65.9-.34-4.9.04-8,1.14-9.3,1.1-1.3,4.13-2.22,9.1-2.74,4.07-.43,7.17-.48,9.3-.16,1.3.23,2.89.31,4.76.25,1.86-.06,4.43-.22,7.69-.47,2.53-.27,4.45-.45,5.77-.54,1.31-.09,2.25-.1,2.81-.02.56.08.98.19,1.27.35.31.33,1.03,1.29,2.15,2.86,1.12,1.57,2.35,3.43,3.67,5.57,1.42,2.23,3.05,4.7,4.9,7.43,1.84,2.73,3.46,5.12,4.87,7.16,1.4,2.04,3.29,4.95,5.65,8.72,2.36,3.77,4.65,7.5,6.87,11.2,5.63,9.18,12.37,19.94,20.2,32.27,7.84,12.33,13.81,21.52,17.92,27.57l5.68,8.31-.77-8.55c-.25-2.35-.53-5.45-.85-9.3-.32-3.85-.56-7.46-.73-10.82-.19-3.54-.65-9.39-1.38-17.54-.72-8.15-1.56-16.65-2.49-25.5-.86-8.96-1.62-17.08-2.3-24.36-.68-7.28-1.09-12.02-1.23-14.19-.09-2.55-.1-4.42-.05-5.61.06-1.19.29-2.02.7-2.47.41-.45,1.15-.83,2.21-1.12,1.15-.4,4.2-.9,9.16-1.52,4.96-.61,10.52-1.16,16.69-1.63l7.6-.67,1.78,1.32,1.65,1.33,2.04,16.64c.61,4.96,1.15,9.61,1.61,13.95.46,4.34.77,7.69.93,10.04.1,2.64.84,11.2,2.24,25.67,1.39,14.47,3.04,31.57,4.95,51.29.88,9.14,1.65,17.14,2.34,24.01.68,6.87,1.26,12.8,1.74,17.77.48,4.98.88,9.14,1.18,12.48.31,3.35.55,6.07.72,8.15.17,2.08.3,3.67.37,4.76.07,1.09.08,1.84.03,2.26-.05.42-.11.67-.19.77-.5.42-2.62.92-6.35,1.5-3.73.58-8.02,1.1-12.85,1.57-4.84.47-9.21.82-13.12,1.04-3.91.23-6.28.21-7.13-.07-.29-.15-.64-.25-1.06-.3-.42-.05-.8,0-1.15.12-.81.09-1.52-.16-2.13-.73-.84-1.01-2.76-3.59-5.76-7.75-3-4.16-6.08-8.45-9.24-12.87-3.16-4.42-5.34-7.52-6.54-9.31-2.19-3.42-4.49-6.81-6.9-10.17-2.41-3.35-4.46-6.04-6.13-8.05-4.19-5.04-9.11-11.42-14.77-19.13-5.66-7.71-10.19-14.27-13.59-19.67l-4.76-7.45.46,9.55c.11,2.73.25,5.57.42,8.52.17,2.95.27,5.39.29,7.3.12,2,.57,7.11,1.35,15.35.78,8.23,1.7,17.37,2.76,27.39.54,5.06,1,9.44,1.39,13.15.39,3.71.75,6.87,1.07,9.48.32,2.62.55,4.79.69,6.51.13,1.72.24,3.11.3,4.15.06,1.04.1,1.82.11,2.32,0,.5-.03.85-.1,1.04-.07.19-.15.33-.23.43-.25.21-.48.39-.69.55-.21.16-.37.2-.47.12-.09,0-.68.03-1.78.05-1.09.02-2.42.07-3.96.14Z"/>
      <path class="cls-2" d="m298.53,258c-.82-.14-3.02-.37-6.6-.68-3.58-.31-7.76-.65-12.54-1.03l-16.83-.99-.02-2.04c-.06-.58.03-1.67.26-3.26.23-1.59.49-3.29.79-5.11.8-4.22,1.75-12.04,2.83-23.46,1.09-11.42,2.69-29.72,4.82-54.89.74-9.55,1.33-19.55,1.76-29.99.43-10.44.63-19.3.59-26.57.06-2.52.24-6.48.56-11.89.32-5.41.72-11.42,1.2-18.03.48-6.61.95-12.32,1.42-17.14.47-4.82.81-7.56,1.04-8.23.11-.38.32-.76.62-1.13.3-.37.59-.69.89-.97.2-.18.48-.34.86-.46.38-.12.91-.19,1.6-.2.69,0,1.71,0,3.04.03,1.33.03,3.11.11,5.31.24,2.67.16,5.96.33,9.87.51,3.91.18,7.39.31,10.43.4,3.87.13,6.65.3,8.34.49,1.69.2,2.63.4,2.8.6.17.21.24.6.21,1.17s-.18,1.44-.43,2.59c-.24.86-.47,2.13-.71,3.81-.24,1.68-.5,3.34-.78,4.97-.33,2.5-.85,8.09-1.54,16.77-.7,8.68-1.36,17.29-2,25.83-.64,8.54-.98,13.97-1.03,16.29-.09,18.8-.77,32.66-2.03,41.6-.36,2.89-.76,6.16-1.2,9.81-.45,3.66-.84,6.83-1.18,9.53-.34,2.6-.65,5.19-.94,7.79s-.57,4.52-.82,5.77c-.27,1.44-.47,3.37-.62,5.78-.14,2.42-.24,5.66-.3,9.72,0,3.2-.11,7.29-.31,12.27-.2,4.98-.39,9.69-.56,14.14-.2,3.48-.35,6.26-.42,8.33-.08,2.08-.17,3.65-.28,4.71-.11,1.06-.24,1.78-.4,2.16-.16.38-.34.66-.53.84-.98,1.01-3.38.96-7.19-.13Z"/>
      <path class="cls-2" d="m360.83,323.11c-1.75-.36-3.91-.8-6.47-1.32-2.57-.52-5-1-7.3-1.44-.43-.17-.86-.29-1.3-.35-2.39-.56-5.15-1.11-8.28-1.66-3.12-.54-5.84-1.03-8.13-1.47-.11-.02-.22-.03-.33-.05-2.31-.32-4.02-.58-5.11-.79-1.09-.21-1.85-.43-2.27-.65-.42-.23-.71-.52-.89-.88-.12-.8.18-4.72.88-11.76.7-7.04,1.65-15.5,2.85-25.38,1.2-9.88,2.46-19.51,3.76-28.88,1.3-9.36,2.44-16.79,3.43-22.27.89-4.82,2.08-12.32,3.55-22.5,1.47-10.18,2.9-20.29,4.3-30.32,5.45-38.44,9.77-65.08,12.96-79.91,1.05-5.92,2.41-9.49,4.1-10.72,1.69-1.22,5.56-1.42,11.62-.58,4.96.69,8.66,1.54,11.1,2.55,1.48.66,3.34,1.22,5.58,1.7,2.23.48,5.33,1.05,9.28,1.71,3.08.43,5.42.78,7.01,1.06,1.59.28,2.7.54,3.34.8.64.26,1.11.52,1.41.79.27.49.84,1.83,1.71,4.03.87,2.2,1.78,4.77,2.72,7.71,1.03,3.07,2.24,6.49,3.63,10.28,1.38,3.79,2.61,7.1,3.67,9.94,1.06,2.84,2.44,6.86,4.14,12.03,1.69,5.18,3.31,10.29,4.86,15.33,3.98,12.57,8.81,27.34,14.48,44.3,5.67,16.96,10.06,29.65,13.16,38.05l4.29,11.55,1.61-10.39c.4-2.86.98-6.63,1.74-11.3.76-4.67,1.53-9.02,2.32-13.07.82-4.27,2-11.35,3.54-21.24,1.54-9.89,3.06-20.24,4.56-31.04,1.62-10.89,3.11-20.77,4.45-29.62,1.34-8.85,2.25-14.6,2.73-17.23.65-3.05,1.18-5.28,1.6-6.69.42-1.4.94-2.31,1.56-2.73.62-.42,1.61-.65,2.96-.68,1.48-.13,5.26.17,11.33.9,6.07.73,12.84,1.73,20.31,2.99l9.23,1.45,1.73,2.09,1.56,2.07-2.5,20.38c-.73,6.08-1.46,11.76-2.2,17.05-.73,5.29-1.36,9.36-1.87,12.21-.67,3.17-2.3,13.55-4.92,31.16-2.62,17.61-5.7,38.41-9.26,62.4-1.66,11.12-3.09,20.86-4.31,29.22-1.22,8.37-2.28,15.58-3.17,21.63-.9,6.05-1.66,11.12-2.28,15.18-.62,4.07-1.14,7.37-1.54,9.89-.41,2.53-.73,4.45-.97,5.76-.24,1.31-.45,2.21-.63,2.69-.18.48-.33.77-.46.86-.72.35-3.39.32-7.99-.1-4.6-.41-9.85-1.06-15.74-1.93-5.89-.87-11.19-1.75-15.89-2.63-4.71-.88-7.53-1.61-8.46-2.19-.3-.26-.69-.49-1.17-.67-.48-.18-.95-.24-1.41-.2-.99-.14-1.76-.64-2.32-1.5-.7-1.45-2.22-5.08-4.55-10.91-2.33-5.83-4.73-11.83-7.18-18.01-2.46-6.18-4.13-10.51-5.02-13-1.59-4.71-3.32-9.42-5.2-14.12-1.88-4.7-3.51-8.49-4.91-11.38-3.49-7.22-7.46-16.25-11.9-27.09-4.45-10.84-7.9-19.97-10.35-27.38l-3.46-10.25-2.27,11.48c-.68,3.27-1.35,6.69-2.01,10.25-.66,3.56-1.27,6.48-1.81,8.76-.45,2.41-1.42,8.62-2.93,18.63-1.5,10.01-3.1,21.13-4.8,33.37-.86,6.17-1.6,11.52-2.23,16.03-.63,4.52-1.14,8.38-1.53,11.58-.39,3.2-.76,5.85-1.1,7.93-.35,2.09-.64,3.76-.87,5.02-.23,1.26-.42,2.19-.56,2.79-.14.6-.28,1-.42,1.2-.14.2-.28.35-.4.45-.36.17-.69.32-.99.45-.3.13-.5.13-.59,0-.11-.02-.82-.17-2.13-.46-1.31-.3-2.89-.63-4.75-1Z"/>
      <path class="cls-2" d="m629.8,341.61c-.22-.07-2.71-.13-7.46-.17-4.75-.04-10.63-.09-17.64-.17-7.08-.07-13.56-.17-19.46-.28-5.9-.11-9.8-.24-11.72-.39-1.77-.07-4.09-.15-6.97-.22-2.88-.07-5.49-.11-7.85-.11h-4.2c-1.11,0-1.97-.02-2.6-.06-.63-.04-1.11-.07-1.44-.11-.33-.04-.57-.11-.72-.22-.15-.11-.26-.24-.33-.39-.15-.22-.26-.9-.33-2.05-.07-1.14-.15-3.06-.22-5.75-.07-2.69-.15-6.43-.22-11.22-.07-5.23-.15-10.12-.22-14.65-.07-4.53-.18-7.68-.33-9.45-.07-1.47-.15-3.74-.22-6.8-.07-3.06-.15-6.28-.22-9.67v-2.21c0-3.54-.02-8.75-.05-15.65-.04-6.89-.13-13.65-.28-20.29-.15-7.22-.24-12.6-.28-16.14-.04-3.54,0-6.26.11-8.18.11-1.92.28-4.05.5-6.41.59-5.31.88-10.54.88-15.7,0-3.02.04-5.16.11-6.41.07-1.25.33-2.05.77-2.38.44-.33,1.18-.57,2.21-.72h.11c5.46-1.03,9.99-1.51,13.6-1.44,5.53.07,12.22.09,20.07.06,7.85-.04,18.33-.17,31.46-.39h2.54c5.9-.07,10.8-.11,14.71-.11s6.04.04,6.41.11c.44.07.77.28,1,.61.22.33.4,1,.55,1.99.15,1,.24,2.51.28,4.53.04,2.03.09,4.81.17,8.35,0,1.77.04,3.47.11,5.09,0,2.65.02,4.94.05,6.85.04,1.92.06,3.1.06,3.54.07,1.11-.11,1.92-.55,2.43-.44.52-1.57.88-3.37,1.11-1.81.22-4.81.44-9.01.66-2.58.15-6.98.22-13.21.22s-12.42-.04-18.58-.11c-6.16-.07-10.45-.18-12.88-.33l-2.87-.22.11,27.86,17.14-.22c5.01-.07,9.49-.11,13.43-.11s6.69.04,8.24.11c1.33.07,2.34.15,3.04.22.7.07,1.18.18,1.44.33.26.15.46.33.61.55.22.3.33.61.33.94s-.15.9-.44,1.71c-.15.44-.26,1.16-.33,2.16-.07,1-.15,2.51-.22,4.53-.07,2.03-.11,4.88-.11,8.57-.07,9.14-.26,13.78-.55,13.93.22.3-4.64.44-14.59.44-3.83,0-7.81.04-11.94.11-4.13.07-7.3.15-9.51.22l-7.3.33-.33,4.64c-.07,1.4-.13,3.45-.17,6.14-.04,2.69-.06,5.33-.06,7.91v9.18l3.54-.11c3.24-.15,7.52-.28,12.83-.39s10.3-.18,14.98-.22c4.68-.04,7.68-.02,9.01.06.88.07,2.17.17,3.87.28,1.69.11,3.5.2,5.42.28,1.03,0,2.03.04,2.99.11h1.66c2.73.07,4.66.2,5.8.39,1.14.18,1.81.57,1.99,1.16.18.59.17,1.59-.05,2.99-.07.22-.11.48-.11.77-.59,4.35-.92,8.96-1,13.82-.07,4.86.11,8.55.55,11.06.07.44.11.88.11,1.33s-.04.81-.11,1.11c-.07.22-.19.39-.33.5-.15.11-.41.2-.77.28-.37.07-.98.11-1.82.11h-3.48c-1.7,0-3.17-.02-4.42-.06-1.25-.04-1.88-.09-1.88-.17Z"/>
      <path class="cls-2" d="m134.7,324.87c-.38-.22-1.28-.7-2.7-1.44-1.43-.74-3.04-1.6-4.84-2.56-1.8-.96-3.7-1.89-5.68-2.8-1.98-.9-3.55-1.63-4.71-2.19-1.18-.45-2.62-1.09-4.29-1.9-1.68-.82-3.2-1.7-4.57-2.64-2.67-1.76-5.76-4.14-9.27-7.13-3.51-2.99-6.31-5.61-8.4-7.86-.56-.71-1.12-1.31-1.69-1.81-.57-.49-.96-.77-1.16-.83-.3-.09-1.04-.93-2.22-2.53-1.18-1.6-2.47-3.57-3.88-5.89-1.41-2.32-2.72-4.59-3.94-6.81-.86-1.56-1.67-3.39-2.44-5.47-.77-2.08-1.43-4.03-2-5.84-.44-1.88-.94-3.75-1.49-5.61-.56-1.86-.99-3.38-1.3-4.57-2.14-6.97-2.02-17.18.35-30.63.39-2.84.93-5.56,1.63-8.15.7-2.59,1.83-6.23,3.42-10.92,2.4-7.52,4.26-13.44,5.57-17.77,1.31-4.33,2.52-8.58,3.62-12.75.94-4,2.12-7.57,3.53-10.73,1.41-3.15,3.21-6.43,5.41-9.85,4.29-6.09,10.92-12.99,19.89-20.68,8.97-7.69,17.02-13.24,24.14-16.65,2.52-1.13,6.24-2.54,11.17-4.23,4.93-1.69,9.07-3.04,12.43-4.03,5.96-1.66,12.12-2.5,18.48-2.52,1.2.02,2.38.11,3.53.29,1.16.17,2.72.52,4.71,1.04,1.98.52,4.85,1.33,8.58,2.41,5.05,1.47,8.77,2.6,11.17,3.41,2.4.81,4.49,1.69,6.3,2.65,16.29,8.02,26.73,17.73,31.3,29.14.54,1.14,1,2.12,1.36,2.94.36.82.6,1.24.7,1.27.2.06.63.76,1.28,2.1.65,1.34,1.36,2.94,2.14,4.81,2.47,5.43,4.05,9.34,4.73,11.73.67,2.39.65,4.08-.08,5.07-.32.35-1.81,1.34-4.48,2.97-2.67,1.64-5.9,3.52-9.69,5.65-3.8,2.13-7.48,4.15-11.05,6.08-3.57,1.92-6.42,3.34-8.55,4.25-3.33,1.66-5.58,2.32-6.74,1.99-1.16-.34-2.39-2.06-3.67-5.17-1.48-2.84-3.73-6.48-6.77-10.92-3.04-4.44-5.76-8-8.16-10.67-1.74-1.93-3.52-3.43-5.35-4.51-1.82-1.08-4.01-1.93-6.57-2.56-1.45-.31-2.73-.52-3.84-.62-1.12-.1-2.66.02-4.63.38-1.97.36-4.98.94-9.05,1.73-3.6.71-6.55,1.63-8.85,2.77-2.3,1.14-5.13,3.14-8.48,6-3.48,2.93-7.12,6.5-10.92,10.71-3.8,4.21-6.37,7.49-7.71,9.84-5.25,9.76-8.93,19.04-11.04,27.85-1.41,5.62-2.35,10.06-2.8,13.32-.46,3.26-.64,6.44-.55,9.53.03,5.92,1.63,11.37,4.78,16.34,1.68,2.9,3.22,5.12,4.63,6.69,1.41,1.56,3.12,3.02,5.14,4.37,4.96,3.3,8.58,4.79,10.86,4.47.67-.03,1.6-.03,2.8,0,1.2.02,2.38.09,3.55.21,2.8.16,6.23.14,10.29-.05,4.05-.19,7.08-.54,9.1-1.06,2.47-.6,5.63-1.84,9.47-3.74,3.84-1.9,6.87-3.67,9.11-5.33.71-.56,1.49-1.15,2.33-1.79,1.97-1.51,3.68-2.87,5.13-4.1,1.45-1.22,2.59-2.12,3.42-2.71.83-.58,1.5-.93,2.03-1.05.53-.12,1.1-.09,1.7.08,1.52.44,4.69,4.59,9.53,12.46.64,1.17,1.35,2.31,2.13,3.41.77,1.1,1.38,2.04,1.81,2.83.24.29.44.57.58.83,1.65,2.23,3.49,4.87,5.5,7.92,2.02,3.05,3.44,5.41,4.27,7.07,1.08,1.96,1.37,3.58.89,4.86-.48,1.29-2.08,3.01-4.79,5.18-1.16.98-2.18,1.86-3.07,2.64-.89.79-1.34,1.23-1.37,1.33-.03.1-.2.22-.51.34-.31.13-.7.24-1.16.32-.46.09-1.15.38-2.06.88-.91.5-1.8,1.12-2.67,1.85-1.65,1.16-4.3,2.83-7.94,5.01-3.65,2.17-7.31,4.23-11,6.17-3.69,1.94-6.4,3.26-8.13,3.96-1.11.44-2.36.96-3.73,1.54-1.38.59-2.59,1.17-3.63,1.74-1.92.98-3.85,1.65-5.76,2.02-1.92.38-4.56.51-7.92.41-3.37-.1-8.12-.33-14.26-.69-2.17-.08-4.48-.42-6.93-1.03-2.45-.6-4.45-1.29-5.97-2.06Z"/>
    </g>
  </g>
</svg>